<svg xmlns="http://www.w3.org/2000/svg" width="128" height="128" viewBox="0 0 128 128">
<defs><linearGradient id="g" x1="0" y1="0" x2="1" y2="1"><stop offset="0" stop-color="#5B55F5"/><stop offset=".52" stop-color="#2F7DF8"/><stop offset="1" stop-color="#27C9ED"/></linearGradient></defs>
<rect width="128" height="128" rx="30" fill="#fff"/>
<circle cx="45" cy="27" r="15" fill="url(#g)"/>
<path d="M20 51c0-10 8-18 18-18h9c8 0 15 4 19 11l8 11 18-22c6-7 17-7 22 0 5 6 4 14-2 20L76 98c-7 8-19 8-26 0L23 71c-2-5-3-11-3-20Z" fill="url(#g)"/>
<path d="M43 66l15 15 42-48" fill="none" stroke="#fff" stroke-width="10" stroke-linecap="round" stroke-linejoin="round"/>
</svg>
